<svg width="8" height="8" viewBox="0 0 8 8" fill="none" xmlns="http://www.w3.org/2000/svg">
<g id="arrow-down-circle">
<g clip-path="url(#clip0_110_445)">
<rect width="8" height="8" rx="4" fill="#112F53"/>
<path id="Vector" fill-rule="evenodd" clip-rule="evenodd" d="M0.5 4C0.5 4.92826 0.868749 5.8185 1.52513 6.47487C2.1815 7.13125 3.07174 7.5 4 7.5C4.92826 7.5 5.8185 7.13125 6.47487 6.47487C7.13125 5.8185 7.5 4.92826 7.5 4C7.5 3.07174 7.13125 2.1815 6.47487 1.52513C5.8185 0.868749 4.92826 0.5 4 0.5C3.07174 0.5 2.1815 0.868749 1.52513 1.52513C0.868749 2.1815 0.5 3.07174 0.5 4ZM8 4C8 5.06087 7.57857 6.07828 6.82843 6.82843C6.07828 7.57857 5.06087 8 4 8C2.93913 8 1.92172 7.57857 1.17157 6.82843C0.421427 6.07828 0 5.06087 0 4C0 2.93913 0.421427 1.92172 1.17157 1.17157C1.92172 0.421427 2.93913 0 4 0C5.06087 0 6.07828 0.421427 6.82843 1.17157C7.57857 1.92172 8 2.93913 8 4ZM4.25 2.25C4.25 2.1837 4.22366 2.12011 4.17678 2.07322C4.12989 2.02634 4.0663 2 4 2C3.9337 2 3.87011 2.02634 3.82322 2.07322C3.77634 2.12011 3.75 2.1837 3.75 2.25V5.1465L2.677 4.073C2.63006 4.02606 2.56639 3.99968 2.5 3.99968C2.43361 3.99968 2.36994 4.02606 2.323 4.073C2.27606 4.11994 2.24968 4.18361 2.24968 4.25C2.24968 4.31639 2.27606 4.38006 2.323 4.427L3.823 5.927C3.84622 5.95028 3.87381 5.96875 3.90418 5.98136C3.93456 5.99396 3.96712 6.00045 4 6.00045C4.03288 6.00045 4.06544 5.99396 4.09582 5.98136C4.12619 5.96875 4.15378 5.95028 4.177 5.927L5.677 4.427C5.72394 4.38006 5.75032 4.31639 5.75032 4.25C5.75032 4.18361 5.72394 4.11994 5.677 4.073C5.63006 4.02606 5.56639 3.99968 5.5 3.99968C5.43361 3.99968 5.36994 4.02606 5.323 4.073L4.25 5.1465V2.25Z" fill="#112F53"/>
</g>
</g>
<defs>
<clipPath id="clip0_110_445">
<rect width="8" height="8" rx="4" fill="white"/>
</clipPath>
</defs>
</svg>
