<svg width="16" height="16" viewBox="0 0 16 16" fill="none" xmlns="http://www.w3.org/2000/svg">
<g id="house">
<g id="Vector">
<path fill-rule="evenodd" clip-rule="evenodd" d="M1.99999 13.4999V6.99994H2.99999V13.4999C2.99999 13.6325 3.05267 13.7597 3.14644 13.8535C3.24021 13.9473 3.36738 13.9999 3.49999 13.9999H12.5C12.6326 13.9999 12.7598 13.9473 12.8535 13.8535C12.9473 13.7597 13 13.6325 13 13.4999V6.99994H14V13.4999C14 13.8978 13.842 14.2793 13.5607 14.5606C13.2793 14.8419 12.8978 14.9999 12.5 14.9999H3.49999C3.10217 14.9999 2.72064 14.8419 2.43933 14.5606C2.15803 14.2793 1.99999 13.8978 1.99999 13.4999ZM13 2.49994V5.99994L11 3.99994V2.49994C11 2.36733 11.0527 2.24015 11.1464 2.14639C11.2402 2.05262 11.3674 1.99994 11.5 1.99994H12.5C12.6326 1.99994 12.7598 2.05262 12.8535 2.14639C12.9473 2.24015 13 2.36733 13 2.49994Z" fill="black"/>
<path fill-rule="evenodd" clip-rule="evenodd" d="M7.29299 1.49994C7.48052 1.31247 7.73483 1.20715 7.99999 1.20715C8.26516 1.20715 8.51946 1.31247 8.70699 1.49994L15.354 8.14594C15.4479 8.23983 15.5006 8.36716 15.5006 8.49994C15.5006 8.63272 15.4479 8.76005 15.354 8.85394C15.2601 8.94783 15.1328 9.00057 15 9.00057C14.8672 9.00057 14.7399 8.94783 14.646 8.85394L7.99999 2.20694L1.35399 8.85394C1.2601 8.94783 1.13277 9.00057 0.999991 9.00057C0.867215 9.00057 0.739877 8.94783 0.645991 8.85394C0.552104 8.76005 0.499359 8.63272 0.499359 8.49994C0.499359 8.36716 0.552104 8.23983 0.645991 8.14594L7.29299 1.49994Z" fill="black"/>
</g>
</g>
</svg>
