<svg width="16" height="16" viewBox="0 0 16 16" fill="none" xmlns="http://www.w3.org/2000/svg">
<g id="speedometer2" clip-path="url(#clip0_110_409)">
<g id="Vector">
<path d="M8.00001 4.00002C8.13261 4.00002 8.25979 4.0527 8.35356 4.14647C8.44733 4.24023 8.50001 4.36741 8.50001 4.50002V6.00002C8.50001 6.13263 8.44733 6.2598 8.35356 6.35357C8.25979 6.44734 8.13261 6.50002 8.00001 6.50002C7.8674 6.50002 7.74022 6.44734 7.64645 6.35357C7.55268 6.2598 7.50001 6.13263 7.50001 6.00002V4.50002C7.50001 4.36741 7.55268 4.24023 7.64645 4.14647C7.74022 4.0527 7.8674 4.00002 8.00001 4.00002ZM3.73201 5.73202C3.82577 5.63828 3.95292 5.58563 4.08551 5.58563C4.21809 5.58563 4.34524 5.63828 4.43901 5.73202L5.35401 6.64602C5.40049 6.69251 5.43737 6.7477 5.46253 6.80843C5.48769 6.86917 5.50064 6.93427 5.50064 7.00002C5.50064 7.06576 5.48769 7.13086 5.46253 7.1916C5.43737 7.25234 5.40049 7.30753 5.35401 7.35402C5.30752 7.40051 5.25233 7.43738 5.19159 7.46254C5.13085 7.4877 5.06575 7.50065 5.00001 7.50065C4.93426 7.50065 4.86916 7.4877 4.80842 7.46254C4.74768 7.43738 4.69249 7.40051 4.64601 7.35402L3.73201 6.43902C3.63827 6.34525 3.58561 6.2181 3.58561 6.08552C3.58561 5.95294 3.63827 5.82578 3.73201 5.73202ZM2.00001 10C2.00001 9.86741 2.05268 9.74023 2.14645 9.64646C2.24022 9.5527 2.3674 9.50002 2.50001 9.50002H4.08601C4.21861 9.50002 4.34579 9.5527 4.43956 9.64646C4.53333 9.74023 4.58601 9.86741 4.58601 10C4.58601 10.1326 4.53333 10.2598 4.43956 10.3536C4.34579 10.4473 4.21861 10.5 4.08601 10.5H2.50001C2.3674 10.5 2.24022 10.4473 2.14645 10.3536C2.05268 10.2598 2.00001 10.1326 2.00001 10ZM11.5 10C11.5 9.86741 11.5527 9.74023 11.6465 9.64646C11.7402 9.5527 11.8674 9.50002 12 9.50002H13.5C13.6326 9.50002 13.7598 9.5527 13.8536 9.64646C13.9473 9.74023 14 9.86741 14 10C14 10.1326 13.9473 10.2598 13.8536 10.3536C13.7598 10.4473 13.6326 10.5 13.5 10.5H12C11.8674 10.5 11.7402 10.4473 11.6465 10.3536C11.5527 10.2598 11.5 10.1326 11.5 10ZM12.254 5.75402C12.1847 5.6851 12.0921 5.64479 11.9944 5.64108C11.8968 5.63737 11.8013 5.67055 11.727 5.73402L7.54701 9.31002C7.44961 9.39208 7.37053 9.49366 7.31487 9.6082C7.25921 9.72275 7.22821 9.8477 7.22388 9.97497C7.21954 10.1023 7.24197 10.229 7.28972 10.3471C7.33746 10.4651 7.40945 10.5719 7.50104 10.6604C7.59262 10.7489 7.70176 10.8171 7.82139 10.8608C7.94103 10.9045 8.06849 10.9225 8.19555 10.9138C8.3226 10.9051 8.44641 10.8698 8.55897 10.8103C8.67154 10.7507 8.77034 10.6682 8.84901 10.568L12.283 6.27102C12.3427 6.19623 12.3728 6.10205 12.3675 6.00648C12.3621 5.91091 12.3217 5.82067 12.254 5.75302V5.75402Z" fill="#212529"/>
<path fill-rule="evenodd" clip-rule="evenodd" d="M5.30783e-06 10C0.00105068 8.83582 0.256178 7.68588 0.747577 6.63047C1.23898 5.57506 1.9548 4.63962 2.84509 3.88945C3.73538 3.13928 4.77866 2.59246 5.90212 2.28717C7.02558 1.98188 8.20213 1.92546 9.34964 2.12187C10.4972 2.31828 11.588 2.76277 12.5459 3.42432C13.5039 4.08587 14.306 4.94853 14.8961 5.95208C15.4862 6.95563 15.8502 8.07589 15.9626 9.23465C16.075 10.3934 15.9332 11.5627 15.547 12.661C15.105 13.914 13.702 14.263 12.615 13.911C11.309 13.488 9.47501 13 8.00001 13C6.52601 13 4.69001 13.488 3.38501 13.911C2.29801 14.263 0.895005 13.914 0.453005 12.661C0.152147 11.8061 -0.00103942 10.9063 5.30783e-06 10ZM8.00001 3.00002C6.88038 2.99973 5.77701 3.26801 4.78252 3.78235C3.78802 4.29669 2.93141 5.04208 2.28457 5.95595C1.63774 6.86983 1.21955 7.92553 1.06511 9.03446C0.910674 10.1434 1.02449 11.2732 1.39701 12.329C1.60001 12.904 2.32001 13.205 3.07701 12.959C4.39701 12.533 6.35801 12 8.00001 12C9.64201 12 11.604 12.532 12.923 12.96C13.68 13.205 14.4 12.904 14.603 12.329C14.9755 11.2732 15.0893 10.1434 14.9349 9.03446C14.7805 7.92553 14.3623 6.86983 13.7154 5.95595C13.0686 5.04208 12.212 4.29669 11.2175 3.78235C10.223 3.26801 9.11963 2.99973 8.00001 3.00002Z" fill="#212529"/>
</g>
</g>
<defs>
<clipPath id="clip0_110_409">
<rect width="16" height="16" fill="white"/>
</clipPath>
</defs>
</svg>
